<svg width="21" height="23" viewBox="0 0 21 23" fill="none" xmlns="http://www.w3.org/2000/svg">
<path d="M0 0.116333V22.1966H20.6063V0.116333H0ZM17.1197 5.34561L16.0158 6.47919C15.9193 6.55805 15.8733 6.68619 15.8917 6.80941V15.1536C15.8733 15.2817 15.9193 15.4099 16.0158 15.4838L17.0968 16.6174V16.8687H11.6692V16.6272L12.7869 15.4641C12.8973 15.3458 12.8973 15.3113 12.8973 15.1339V8.38657L9.78797 16.8441H9.36941L5.74951 8.38657V14.0545C5.71732 14.2911 5.79551 14.5326 5.9519 14.7051L7.40537 16.5927V16.8441H3.27492V16.5927L4.7284 14.7051C4.88479 14.5326 4.95378 14.2911 4.91698 14.0545V7.49942C4.93538 7.31706 4.87099 7.13963 4.7422 7.01641L3.44971 5.34561V5.09425H7.46517L10.5653 12.3886L13.2929 5.09918H17.1197V5.34561Z" fill="#FCFAFA"/>
<path d="M0 0.116333V22.1966H20.6063V0.116333H0ZM17.1197 5.34561L16.0158 6.47919C15.9193 6.55805 15.8733 6.68619 15.8917 6.80941V15.1536C15.8733 15.2817 15.9193 15.4099 16.0158 15.4838L17.0968 16.6174V16.8687H11.6692V16.6272L12.7869 15.4641C12.8973 15.3458 12.8973 15.3113 12.8973 15.1339V8.38657L9.78797 16.8441H9.36941L5.74951 8.38657V14.0545C5.71732 14.2911 5.79551 14.5326 5.9519 14.7051L7.40537 16.5927V16.8441H3.27492V16.5927L4.7284 14.7051C4.88479 14.5326 4.95378 14.2911 4.91698 14.0545V7.49942C4.93538 7.31706 4.87099 7.13963 4.7422 7.01641L3.44971 5.34561V5.09425H7.46517L10.5653 12.3886L13.2929 5.09918H17.1197V5.34561Z" fill="#D8B450" fill-opacity="0.08"/>
</svg>
