<svg width="20" height="23" viewBox="0 0 20 23" fill="none" xmlns="http://www.w3.org/2000/svg">
<path d="M9.99232 0.893066C4.47237 0.893066 0 5.68535 0 11.6002C0 17.515 4.47237 22.3073 9.99232 22.3073C15.5123 22.3073 19.9846 17.515 19.9846 11.6002C19.9846 5.68535 15.5123 0.893066 9.99232 0.893066ZM14.8998 8.22829L13.26 16.509C13.1391 17.0962 12.8127 17.2387 12.3574 16.9623L9.85936 14.9893L8.65464 16.2327C8.52168 16.3752 8.40886 16.4961 8.151 16.4961L8.32828 13.7718L12.9578 9.29036C13.1592 9.1004 12.9135 8.99246 12.6475 9.18243L6.92613 13.0422L4.46028 12.2175C3.9244 12.0362 3.91232 11.6433 4.5731 11.367L14.2068 7.3864C14.6541 7.2137 15.0449 7.50297 14.8998 8.22829Z" fill="#FCFAFA"/>
<path d="M9.99232 0.893066C4.47237 0.893066 0 5.68535 0 11.6002C0 17.515 4.47237 22.3073 9.99232 22.3073C15.5123 22.3073 19.9846 17.515 19.9846 11.6002C19.9846 5.68535 15.5123 0.893066 9.99232 0.893066ZM14.8998 8.22829L13.26 16.509C13.1391 17.0962 12.8127 17.2387 12.3574 16.9623L9.85936 14.9893L8.65464 16.2327C8.52168 16.3752 8.40886 16.4961 8.151 16.4961L8.32828 13.7718L12.9578 9.29036C13.1592 9.1004 12.9135 8.99246 12.6475 9.18243L6.92613 13.0422L4.46028 12.2175C3.9244 12.0362 3.91232 11.6433 4.5731 11.367L14.2068 7.3864C14.6541 7.2137 15.0449 7.50297 14.8998 8.22829Z" fill="#D8B450" fill-opacity="0.08"/>
</svg>
