<svg width="24" height="22" viewBox="0 0 24 22" fill="none" xmlns="http://www.w3.org/2000/svg">
<path d="M21.5333 6.1744C21.5485 6.40284 21.5485 6.63133 21.5485 6.85977C21.5485 13.8275 16.5992 21.856 7.5534 21.856C4.76655 21.856 2.1777 20.9911 0 19.4899C0.395958 19.5388 0.776635 19.5551 1.18783 19.5551C3.48731 19.5551 5.60412 18.7229 7.2945 17.3033C5.13204 17.2543 3.31983 15.7367 2.69544 13.648C3.00004 13.697 3.30459 13.7296 3.62442 13.7296C4.06604 13.7296 4.5077 13.6643 4.91885 13.5501C2.66502 13.0606 0.974591 10.9392 0.974591 8.37733V8.31208C1.6294 8.70371 2.39089 8.94848 3.19795 8.98108C1.87306 8.03462 1.00506 6.41916 1.00506 4.59154C1.00506 3.61248 1.24867 2.71499 1.6751 1.93173C4.09646 5.13004 7.73612 7.2187 11.8173 7.44719C11.7412 7.05556 11.6955 6.64765 11.6955 6.2397C11.6955 3.33507 13.8884 0.968994 16.6144 0.968994C18.0306 0.968994 19.3098 1.60539 20.2083 2.63342C21.32 2.40498 22.386 1.96438 23.3302 1.36063C22.9646 2.5845 22.188 3.61253 21.1677 4.2652C22.1576 4.15103 23.117 3.85725 24.0002 3.44934C23.3303 4.49364 22.4927 5.42373 21.5333 6.1744Z" fill="#FCFAFA"/>
<path d="M21.5333 6.1744C21.5485 6.40284 21.5485 6.63133 21.5485 6.85977C21.5485 13.8275 16.5992 21.856 7.5534 21.856C4.76655 21.856 2.1777 20.9911 0 19.4899C0.395958 19.5388 0.776635 19.5551 1.18783 19.5551C3.48731 19.5551 5.60412 18.7229 7.2945 17.3033C5.13204 17.2543 3.31983 15.7367 2.69544 13.648C3.00004 13.697 3.30459 13.7296 3.62442 13.7296C4.06604 13.7296 4.5077 13.6643 4.91885 13.5501C2.66502 13.0606 0.974591 10.9392 0.974591 8.37733V8.31208C1.6294 8.70371 2.39089 8.94848 3.19795 8.98108C1.87306 8.03462 1.00506 6.41916 1.00506 4.59154C1.00506 3.61248 1.24867 2.71499 1.6751 1.93173C4.09646 5.13004 7.73612 7.2187 11.8173 7.44719C11.7412 7.05556 11.6955 6.64765 11.6955 6.2397C11.6955 3.33507 13.8884 0.968994 16.6144 0.968994C18.0306 0.968994 19.3098 1.60539 20.2083 2.63342C21.32 2.40498 22.386 1.96438 23.3302 1.36063C22.9646 2.5845 22.188 3.61253 21.1677 4.2652C22.1576 4.15103 23.117 3.85725 24.0002 3.44934C23.3303 4.49364 22.4927 5.42373 21.5333 6.1744Z" fill="#D8B450" fill-opacity="0.08"/>
</svg>
